<svg xmlns="http://www.w3.org/2000/svg" viewBox="0 0 32 32"><rect width="32" height="32" fill="#141211"/><circle cx="4.8" cy="4.8" r="2.1" fill="#3a3633"/><circle cx="10.399999999999999" cy="4.8" r="2.1" fill="#55c8e6"/><circle cx="16" cy="4.8" r="2.1" fill="#55c8e6"/><circle cx="21.599999999999998" cy="4.8" r="2.1" fill="#55c8e6"/><circle cx="27.2" cy="4.8" r="2.1" fill="#3a3633"/><circle cx="4.8" cy="10.399999999999999" r="2.1" fill="#55c8e6"/><circle cx="10.399999999999999" cy="10.399999999999999" r="2.1" fill="#3a3633"/><circle cx="16" cy="10.399999999999999" r="2.1" fill="#3a3633"/><circle cx="21.599999999999998" cy="10.399999999999999" r="2.1" fill="#3a3633"/><circle cx="27.2" cy="10.399999999999999" r="2.1" fill="#3a3633"/><circle cx="4.8" cy="16" r="2.1" fill="#55c8e6"/><circle cx="10.399999999999999" cy="16" r="2.1" fill="#3a3633"/><circle cx="16" cy="16" r="2.1" fill="#55c8e6"/><circle cx="21.599999999999998" cy="16" r="2.1" fill="#55c8e6"/><circle cx="27.2" cy="16" r="2.1" fill="#55c8e6"/><circle cx="4.8" cy="21.599999999999998" r="2.1" fill="#55c8e6"/><circle cx="10.399999999999999" cy="21.599999999999998" r="2.1" fill="#3a3633"/><circle cx="16" cy="21.599999999999998" r="2.1" fill="#3a3633"/><circle cx="21.599999999999998" cy="21.599999999999998" r="2.1" fill="#3a3633"/><circle cx="27.2" cy="21.599999999999998" r="2.1" fill="#55c8e6"/><circle cx="4.8" cy="27.2" r="2.1" fill="#3a3633"/><circle cx="10.399999999999999" cy="27.2" r="2.1" fill="#55c8e6"/><circle cx="16" cy="27.2" r="2.1" fill="#55c8e6"/><circle cx="21.599999999999998" cy="27.2" r="2.1" fill="#55c8e6"/><circle cx="27.2" cy="27.2" r="2.1" fill="#3a3633"/></svg>
